<?xml version="1.0" standalone="no"?>
<!DOCTYPE svg PUBLIC "-//W3C//DTD SVG 20010904//EN"
 "http://www.w3.org/TR/2001/REC-SVG-20010904/DTD/svg10.dtd">
<svg version="1.0" xmlns="http://www.w3.org/2000/svg"
 width="936.000000pt" height="504.000000pt" viewBox="0 0 936.000000 504.000000"
 preserveAspectRatio="xMidYMid meet">

<g transform="translate(0.000000,504.000000) scale(0.100000,-0.100000)"
fill="#000000" stroke="none">
<path d="M3860 4615 c0 -96 3 -115 15 -115 8 0 15 5 15 10 0 6 8 5 20 -2 31
-19 72 1 88 43 12 31 11 41 -2 72 -17 41 -56 58 -88 38 -16 -10 -18 -8 -18 29
0 29 -4 40 -15 40 -12 0 -15 -19 -15 -115z m100 15 c11 -11 20 -31 20 -45 0
-24 -31 -65 -49 -65 -20 0 -41 33 -41 65 0 32 21 65 41 65 5 0 18 -9 29 -20z"/>
<path d="M4240 4615 c0 -70 4 -115 10 -115 6 0 10 45 10 115 0 70 -4 115 -10
115 -6 0 -10 -45 -10 -115z"/>
<path d="M4520 4690 c0 -37 -1 -39 -20 -28 -31 19 -72 -1 -88 -43 -12 -31 -11
-41 2 -72 17 -41 56 -58 88 -38 11 7 18 7 18 1 0 -5 7 -10 15 -10 12 0 15 19
15 115 0 96 -3 115 -15 115 -11 0 -15 -11 -15 -40z m-16 -56 c30 -30 12 -114
-25 -114 -18 0 -49 41 -49 65 0 24 31 65 49 65 5 0 17 -7 25 -16z"/>
<path d="M4610 4715 c0 -8 7 -15 15 -15 8 0 15 7 15 15 0 8 -7 15 -15 15 -8 0
-15 -7 -15 -15z"/>
<path d="M5090 4715 c0 -8 7 -15 15 -15 8 0 15 7 15 15 0 8 -7 15 -15 15 -8 0
-15 -7 -15 -15z"/>
<path d="M5170 4615 c0 -96 3 -115 15 -115 8 0 15 5 15 10 0 7 6 7 19 0 53
-28 101 8 101 75 0 65 -50 102 -101 75 -17 -10 -19 -7 -19 30 0 29 -4 40 -15
40 -12 0 -15 -19 -15 -115z m104 19 c30 -30 12 -114 -25 -114 -18 0 -49 41
-49 65 0 24 31 65 49 65 5 0 17 -7 25 -16z"/>
<path d="M5670 4715 c0 -8 7 -15 15 -15 8 0 15 7 15 15 0 8 -7 15 -15 15 -8 0
-15 -7 -15 -15z"/>
<path d="M3510 4610 l0 -110 71 0 c52 0 70 3 67 13 -3 7 -26 13 -56 15 l-52 3
0 95 c0 77 -3 94 -15 94 -12 0 -15 -19 -15 -110z"/>
<path d="M4850 4697 c0 -14 -6 -28 -12 -31 -10 -5 -10 -7 0 -12 8 -4 12 -28
12 -68 0 -69 10 -86 52 -86 33 0 38 17 6 22 -21 3 -23 9 -26 66 -3 61 -2 62
23 62 14 0 25 5 25 10 0 6 -11 10 -24 10 -18 0 -26 6 -28 22 -4 31 -28 35 -28
5z"/>
<path d="M5560 4696 c0 -13 -6 -26 -12 -29 -10 -4 -10 -7 0 -18 6 -7 12 -38
12 -69 0 -31 5 -61 12 -68 14 -14 68 -16 68 -2 0 6 -8 10 -19 10 -30 0 -42 25
-39 77 3 44 5 48 31 51 37 4 35 22 -3 22 -25 0 -30 4 -30 25 0 14 -4 25 -10
25 -5 0 -10 -11 -10 -24z"/>
<path d="M3693 4663 c-27 -10 -12 -24 20 -18 26 5 39 2 52 -12 18 -17 17 -18
-26 -23 -24 -3 -50 -9 -56 -13 -16 -10 -17 -69 -1 -85 16 -16 60 -15 77 1 11
10 14 10 18 0 12 -33 23 -6 23 56 0 61 -3 72 -22 85 -22 16 -60 20 -85 9z m79
-79 c11 -10 -4 -45 -23 -55 -23 -12 -59 4 -59 26 0 24 64 47 82 29z"/>
<path d="M4065 4645 c-68 -67 8 -174 99 -139 29 11 17 26 -14 19 -35 -8 -80
15 -80 40 0 12 14 15 60 15 57 0 60 1 60 25 0 61 -80 86 -125 40z m76 -5 c36
-20 23 -40 -26 -40 -48 0 -62 19 -27 39 22 13 29 13 53 1z"/>
<path d="M4610 4585 c0 -69 3 -85 15 -85 12 0 15 16 15 85 0 69 -3 85 -15 85
-12 0 -15 -16 -15 -85z"/>
<path d="M4696 4654 c-19 -19 -21 -50 -3 -61 6 -4 27 -13 46 -18 42 -12 50
-30 21 -45 -15 -8 -30 -8 -51 -1 -23 8 -29 7 -29 -3 0 -16 22 -26 55 -26 83 0
99 81 19 96 -38 7 -55 30 -33 45 8 5 29 7 47 4 17 -3 32 -2 32 3 0 25 -81 30
-104 6z"/>
<path d="M4960 4585 c0 -69 3 -85 15 -85 12 0 15 13 15 55 0 42 5 60 21 76 11
11 27 18 35 15 8 -3 14 1 14 9 0 17 -23 19 -51 5 -13 -7 -19 -7 -19 0 0 5 -7
10 -15 10 -12 0 -15 -16 -15 -85z"/>
<path d="M5090 4585 c0 -69 3 -85 15 -85 12 0 15 16 15 85 0 69 -3 85 -15 85
-12 0 -15 -16 -15 -85z"/>
<path d="M5360 4616 c0 -30 4 -66 10 -80 11 -30 54 -44 82 -27 11 7 18 7 18 1
0 -5 7 -10 15 -10 12 0 15 16 15 85 0 69 -3 85 -15 85 -12 0 -15 -14 -15 -65
0 -53 -3 -66 -19 -75 -25 -13 -27 -13 -45 6 -11 10 -16 34 -16 75 0 46 -3 59
-15 59 -11 0 -15 -13 -15 -54z"/>
<path d="M5670 4585 c0 -69 3 -85 15 -85 12 0 15 16 15 85 0 69 -3 85 -15 85
-12 0 -15 -16 -15 -85z"/>
<path d="M5772 4647 c-48 -51 -15 -147 50 -147 46 0 73 32 73 85 0 37 -5 51
-24 66 -32 26 -73 24 -99 -4z m80 -14 c22 -20 23 -70 1 -95 -20 -22 -37 -23
-57 -2 -31 31 -12 114 26 114 6 0 20 -7 30 -17z"/>
<path d="M5940 4585 c0 -69 3 -85 15 -85 12 0 15 13 15 58 0 47 4 63 21 78 35
31 53 9 57 -70 2 -50 6 -66 17 -66 12 0 15 15 15 63 0 92 -33 127 -91 97 -13
-7 -19 -7 -19 0 0 5 -7 10 -15 10 -12 0 -15 -16 -15 -85z"/>
<path d="M1170 4131 c0 -238 -3 -310 -12 -314 -10 -4 -10 -6 0 -6 18 -1 18
-627 0 -634 -10 -4 -10 -6 0 -6 18 -1 18 -627 0 -634 -10 -4 -10 -6 0 -6 18
-1 18 -627 0 -634 -10 -4 -10 -6 0 -6 9 -1 12 -70 12 -310 0 -238 -3 -310 -12
-314 -10 -4 -10 -6 0 -6 18 -1 18 -627 0 -634 -7 -3 397 -6 899 -6 859 -1 912
-2 916 -19 4 -16 5 -16 6 1 1 16 95 17 1825 17 1729 0 1825 -1 1829 -17 4 -17
5 -17 6 0 1 16 51 17 896 17 l895 0 0 1910 0 1910 -3630 0 -3630 0 0 -309z
m7250 -1598 l0 -1898 -1995 0 -1995 0 0 1808 0 1807 -1465 0 -1465 0 0 -1810
0 -1810 -160 0 -160 0 0 1900 0 1900 3620 0 3620 0 0 -1897z"/>
<path d="M2694 4389 c-4 -7 0 -9 13 -5 12 4 25 1 32 -8 10 -11 6 -21 -19 -49
-16 -19 -30 -37 -30 -41 0 -3 17 -5 38 -5 30 2 32 3 9 6 l-28 4 26 30 c14 17
25 36 25 43 0 30 -51 49 -66 25z"/>
<path d="M2787 4393 c-9 -16 -6 -102 4 -109 19 -11 59 6 59 26 0 10 -5 22 -10
25 -8 5 -7 11 1 21 9 11 9 17 -1 29 -13 16 -46 20 -53 8z m41 -26 c2 -10 -3
-17 -12 -17 -18 0 -29 16 -21 31 9 14 29 6 33 -14z m5 -39 c6 -19 -3 -38 -18
-38 -18 0 -28 17 -21 35 7 18 33 20 39 3z"/>
<path d="M2890 4360 c-25 -49 -25 -50 5 -50 17 0 25 -6 26 -17 0 -14 2 -15 6
-3 3 8 11 18 17 22 8 5 7 8 -1 8 -8 0 -13 15 -13 40 0 51 -14 51 -40 0z m30
-10 c0 -24 -4 -30 -21 -30 -20 0 -20 1 -2 30 9 17 19 30 20 30 2 0 3 -13 3
-30z"/>
<path d="M2970 4392 c0 -5 10 -8 22 -8 14 1 24 -6 26 -16 2 -12 -3 -18 -14
-18 -17 0 -17 -1 1 -14 24 -17 13 -50 -15 -43 -11 3 -20 1 -20 -4 0 -15 47
-10 61 7 10 12 10 20 2 34 -8 12 -9 20 -1 28 8 8 8 15 -2 27 -13 16 -60 21
-60 7z"/>
<path d="M3070 4390 c0 -5 5 -10 10 -10 15 0 12 -87 -2 -93 -7 -3 3 -5 22 -5
19 0 29 2 23 5 -8 3 -13 25 -13 59 0 47 -2 54 -20 54 -11 0 -20 -4 -20 -10z"/>
<path d="M3160 4372 c0 -23 4 -28 23 -28 17 1 22 -5 22 -24 0 -19 -5 -25 -22
-24 -13 0 -23 -3 -23 -8 0 -4 11 -8 24 -8 48 0 62 56 18 75 -28 13 -28 32 1
38 16 3 13 5 -10 6 -30 1 -33 -2 -33 -27z"/>
<path d="M6080 4305 l0 -35 100 0 100 0 0 35 0 35 -100 0 -100 0 0 -35z"/>
<path d="M6390 4316 c0 -13 -6 -27 -12 -29 -10 -4 -10 -6 0 -6 6 -1 12 -10 12
-21 0 -11 4 -20 10 -20 6 0 6 9 1 22 -4 13 -5 35 0 50 4 16 4 28 -2 28 -5 0
-9 -11 -9 -24z"/>
<path d="M6431 4324 c0 -11 3 -14 6 -6 3 7 2 16 -1 19 -3 4 -6 -2 -5 -13z"/>
<path d="M6464 4326 c-10 -25 0 -61 18 -64 19 -4 32 29 23 58 -7 23 -33 27
-41 6z m31 -26 c0 -13 -6 -25 -12 -27 -9 -3 -13 6 -13 27 0 21 4 30 13 28 6
-3 12 -15 12 -28z"/>
<path d="M6621 4324 c0 -11 3 -14 6 -6 3 7 2 16 -1 19 -3 4 -6 -2 -5 -13z"/>
<path d="M6652 4300 c0 -41 1 -42 8 -15 4 17 8 25 9 19 0 -5 8 -19 16 -30 13
-18 14 -16 13 26 0 41 -1 42 -8 15 -4 -16 -8 -25 -9 -19 0 5 -8 19 -16 30 -13
18 -14 16 -13 -26z"/>
<path d="M6881 4298 c1 -24 4 -34 6 -23 3 11 10 23 17 27 8 6 7 8 -1 8 -19 0
-16 18 5 23 13 4 11 5 -5 6 -21 1 -23 -3 -22 -41z"/>
<path d="M7130 4331 c0 -5 -9 -11 -21 -14 -29 -8 -22 -51 9 -55 20 -3 22 1 22
37 0 23 -2 41 -5 41 -3 0 -5 -4 -5 -9z m-5 -41 c0 -7 -6 -15 -12 -17 -8 -3
-13 4 -13 17 0 13 5 20 13 18 6 -3 12 -11 12 -18z"/>
<path d="M7223 4300 c0 -25 2 -35 4 -22 2 12 2 32 0 45 -2 12 -4 2 -4 -23z"/>
<path d="M7411 4324 c0 -11 3 -14 6 -6 3 7 2 16 -1 19 -3 4 -6 -2 -5 -13z"/>
<path d="M7501 4324 c0 -11 3 -14 6 -6 3 7 2 16 -1 19 -3 4 -6 -2 -5 -13z"/>
<path d="M7545 4300 c0 -34 3 -40 20 -39 11 0 14 3 8 6 -7 2 -13 20 -13 39 0
19 -3 34 -7 34 -5 0 -8 -18 -8 -40z"/>
<path d="M7691 4324 c0 -11 3 -14 6 -6 3 7 2 16 -1 19 -3 4 -6 -2 -5 -13z"/>
<path d="M7721 4298 c1 -24 4 -34 6 -23 3 11 10 23 17 27 8 6 7 8 -1 8 -19 0
-16 18 5 23 13 4 11 5 -5 6 -21 1 -23 -3 -22 -41z"/>
<path d="M7970 4331 c0 -5 -9 -11 -21 -14 -29 -8 -22 -51 9 -55 20 -3 22 1 22
37 0 23 -2 41 -5 41 -3 0 -5 -4 -5 -9z m-5 -41 c0 -7 -6 -15 -12 -17 -8 -3
-13 4 -13 17 0 13 5 20 13 18 6 -3 12 -11 12 -18z"/>
<path d="M8063 4300 c0 -25 2 -35 4 -22 2 12 2 32 0 45 -2 12 -4 2 -4 -23z"/>
<path d="M8251 4324 c0 -11 3 -14 6 -6 3 7 2 16 -1 19 -3 4 -6 -2 -5 -13z"/>
<path d="M8299 4314 c5 -16 4 -40 -1 -54 -7 -20 -6 -22 3 -13 15 15 14 72 0
86 -7 7 -8 2 -2 -19z"/>
<path d="M7372 4298 c2 -17 9 -33 16 -34 7 -1 8 0 2 3 -14 7 -13 40 2 45 7 3
5 7 -6 11 -15 6 -17 2 -14 -25z"/>
<path d="M8212 4298 c2 -17 9 -33 16 -34 7 -1 8 0 2 3 -14 7 -13 40 2 45 7 3
5 7 -6 11 -15 6 -17 2 -14 -25z"/>
<path d="M6724 4305 c-8 -21 2 -45 20 -45 17 0 28 24 20 45 -4 8 -13 15 -20
15 -8 0 -17 -7 -20 -15z m31 -15 c0 -7 -6 -15 -12 -17 -8 -3 -13 4 -13 17 0
13 5 20 13 18 6 -3 12 -11 12 -18z"/>
<path d="M6781 4288 c2 -32 2 -32 6 -5 5 33 25 31 34 -4 4 -14 7 -17 8 -7 2
28 -10 48 -30 48 -15 0 -19 -7 -18 -32z"/>
<path d="M6921 4288 c1 -21 3 -26 6 -13 3 11 12 26 21 33 14 11 13 12 -6 12
-18 0 -22 -5 -21 -32z"/>
<path d="M6984 4312 c19 -8 19 -9 -3 -15 -28 -7 -23 -31 8 -35 19 -3 22 0 19
25 -2 19 -9 29 -23 30 -19 3 -19 3 -1 -5z m16 -32 c0 -5 -7 -10 -16 -10 -8 0
-12 5 -9 10 3 6 10 10 16 10 5 0 9 -4 9 -10z"/>
<path d="M7031 4293 c-1 -27 3 -33 19 -33 16 0 20 6 19 33 -2 30 -2 30 -6 5
-2 -16 -8 -28 -13 -28 -5 0 -11 12 -13 28 -4 25 -4 25 -6 -5z"/>
<path d="M7151 4304 c0 -11 3 -14 6 -6 3 7 2 16 -1 19 -3 4 -6 -2 -5 -13z"/>
<path d="M7190 4294 c0 -19 -4 -25 -15 -20 -8 3 -15 1 -15 -4 0 -6 9 -10 20
-10 16 0 20 7 20 30 0 17 -2 30 -5 30 -3 0 -5 -12 -5 -26z"/>
<path d="M7250 4305 c-15 -18 3 -45 29 -44 10 0 7 4 -9 11 -25 11 -25 11 -2
15 12 3 22 11 22 19 0 18 -24 18 -40 -1z"/>
<path d="M7311 4288 c2 -32 2 -32 6 -5 3 20 9 27 19 23 8 -3 14 -1 14 4 0 6
-9 10 -20 10 -16 0 -20 -6 -19 -32z"/>
<path d="M7771 4288 c2 -28 2 -29 6 -8 3 14 10 28 17 32 7 5 5 8 -6 8 -14 0
-18 -8 -17 -32z"/>
<path d="M7825 4311 c17 -8 18 -10 3 -10 -27 -1 -24 -41 3 -41 16 0 20 5 17
27 -2 19 -9 29 -23 30 l-20 3 20 -9z m15 -31 c0 -5 -4 -10 -10 -10 -5 0 -10 5
-10 10 0 6 5 10 10 10 6 0 10 -4 10 -10z"/>
<path d="M7874 4290 c1 -18 7 -26 24 -28 19 -3 22 1 21 30 -1 29 -2 30 -8 9
-9 -33 -29 -38 -34 -9 -4 21 -4 21 -3 -2z"/>
<path d="M8001 4293 c-1 -27 3 -33 19 -33 16 0 20 6 19 33 -2 30 -2 30 -6 5
-2 -16 -8 -28 -13 -28 -5 0 -11 12 -13 28 -4 25 -4 25 -6 -5z"/>
<path d="M8094 4305 c-9 -23 3 -45 23 -44 17 1 17 2 1 6 -24 6 -23 23 2 23 13
0 18 5 14 15 -4 8 -13 15 -20 15 -8 0 -17 -7 -20 -15z"/>
<path d="M8151 4288 c2 -32 2 -32 6 -5 5 33 25 31 34 -4 4 -14 7 -17 8 -7 2
28 -10 48 -30 48 -15 0 -19 -7 -18 -32z"/>
<path d="M7351 4274 c0 -11 3 -14 6 -6 3 7 2 16 -1 19 -3 4 -6 -2 -5 -13z"/>
<path d="M7441 4264 c0 -11 3 -14 6 -6 3 7 2 16 -1 19 -3 4 -6 -2 -5 -13z"/>
<path d="M6521 754 c-26 -44 -26 -54 -1 -54 10 0 24 -8 29 -17 9 -16 10 -16
11 -1 0 9 6 19 13 21 10 4 10 6 0 6 -8 1 -13 16 -13 41 0 49 -12 51 -39 4z
m29 -14 c0 -23 -4 -30 -20 -30 -20 0 -20 1 -5 30 9 17 18 30 20 30 3 0 5 -13
5 -30z"/>
<path d="M6594 776 c-11 -30 1 -61 24 -64 29 -4 24 -24 -9 -33 -22 -7 -23 -7
-2 -8 44 -2 68 53 43 100 -12 22 -48 25 -56 5z m41 -26 c0 -13 -6 -25 -12 -27
-16 -6 -27 21 -19 43 9 23 31 11 31 -16z"/>
<path d="M6684 779 c-4 -7 0 -9 13 -5 12 4 25 1 32 -8 10 -11 6 -21 -19 -49
-16 -19 -30 -37 -30 -41 0 -3 17 -5 38 -5 30 2 32 3 9 6 l-28 4 26 30 c14 17
25 36 25 43 0 30 -51 49 -66 25z"/>
<path d="M753 3853 c21 -6 22 -26 2 -43 -22 -18 -18 -30 8 -30 17 0 19 2 8 9
-12 8 -12 12 -2 25 17 20 7 46 -16 45 -17 -1 -17 -2 0 -6z"/>
<path d="M790 3841 c0 -10 9 -21 20 -24 26 -7 26 -24 0 -30 -17 -4 -17 -4 2
-3 30 1 37 35 9 43 -26 7 -27 20 -3 26 13 4 11 5 -5 6 -16 1 -23 -5 -23 -18z"/>
<path d="M865 3851 c-3 -7 0 -8 9 -5 13 5 16 -1 16 -26 0 -26 -3 -31 -17 -25
-15 5 -16 4 -5 -6 17 -18 34 2 30 37 -3 29 -21 43 -33 25z"/>
<path d="M927 3853 c-11 -10 -8 -61 4 -69 6 -3 16 -1 22 5 9 9 8 11 -5 6 -15
-6 -18 -1 -18 25 0 25 3 31 16 26 8 -3 12 -2 9 4 -7 12 -19 13 -28 3z"/>
<path d="M984 3846 c-10 -25 0 -61 18 -64 19 -4 32 29 23 58 -7 23 -33 27 -41
6z m31 -26 c0 -13 -6 -25 -12 -27 -9 -3 -13 6 -13 27 0 21 4 30 13 28 6 -3 12
-15 12 -28z"/>
<path d="M1045 3841 c-9 -30 4 -63 23 -59 12 2 17 14 17 38 0 40 -29 55 -40
21z m35 -21 c0 -31 -16 -41 -26 -15 -8 19 2 45 16 45 5 0 10 -13 10 -30z"/>
<path d="M753 3213 c21 -6 22 -26 2 -43 -22 -18 -18 -30 8 -30 17 0 19 2 8 9
-12 8 -12 12 -2 25 17 20 7 46 -16 45 -17 -1 -17 -2 0 -6z"/>
<path d="M794 3206 c-11 -28 0 -61 21 -61 16 0 20 7 20 35 0 25 -5 36 -18 38
-9 2 -20 -3 -23 -12z m36 -26 c0 -20 -5 -30 -15 -30 -10 0 -15 10 -15 30 0 20
5 30 15 30 10 0 15 -10 15 -30z"/>
<path d="M855 3201 c-9 -30 4 -63 23 -59 12 2 17 14 17 38 0 40 -29 55 -40 21z
m35 -21 c0 -31 -16 -41 -26 -15 -8 19 2 45 16 45 5 0 10 -13 10 -30z"/>
<path d="M927 3214 c-4 -4 -7 -12 -7 -18 0 -6 5 -4 10 4 9 13 11 13 21 0 9
-12 10 -12 7 -1 -5 17 -21 25 -31 15z"/>
<path d="M984 3206 c-10 -25 0 -61 18 -64 19 -4 32 29 23 58 -7 23 -33 27 -41
6z m31 -26 c0 -13 -6 -25 -12 -27 -9 -3 -13 6 -13 27 0 21 4 30 13 28 6 -3 12
-15 12 -28z"/>
<path d="M1044 3206 c-11 -28 0 -61 21 -61 16 0 20 7 20 35 0 25 -5 36 -18 38
-9 2 -20 -3 -23 -12z m36 -26 c0 -20 -5 -30 -15 -30 -10 0 -15 10 -15 30 0 20
5 30 15 30 10 0 15 -10 15 -30z"/>
<path d="M923 3160 c2 -8 10 -15 17 -15 7 0 15 7 17 15 4 13 3 13 -6 0 -10
-13 -12 -13 -22 0 -9 13 -10 13 -6 0z"/>
<path d="M738 2573 c6 -2 12 -17 12 -33 0 -16 -6 -31 -12 -33 -7 -3 -4 -6 7
-6 18 -1 20 4 17 39 -3 29 -8 40 -21 39 -10 0 -11 -2 -3 -6z"/>
<path d="M780 2561 c0 -10 9 -21 20 -24 26 -7 26 -24 0 -30 -17 -4 -17 -4 2
-3 30 1 37 35 9 43 -26 7 -27 20 -3 26 13 4 11 5 -5 6 -16 1 -23 -5 -23 -18z"/>
<path d="M855 2571 c-3 -7 0 -8 9 -5 13 5 16 -1 16 -26 0 -26 -3 -31 -17 -25
-15 5 -16 4 -5 -6 17 -18 34 2 30 37 -3 29 -21 43 -33 25z"/>
<path d="M917 2573 c-11 -10 -8 -61 4 -69 6 -3 16 -1 22 5 9 9 8 11 -5 6 -15
-6 -18 -1 -18 25 0 25 3 31 16 26 8 -3 12 -2 9 4 -7 12 -19 13 -28 3z"/>
<path d="M974 2566 c-10 -25 0 -61 18 -64 19 -4 32 29 23 58 -7 23 -33 27 -41
6z m31 -26 c0 -13 -6 -25 -12 -27 -9 -3 -13 6 -13 27 0 21 4 30 13 28 6 -3 12
-15 12 -28z"/>
<path d="M1035 2561 c-9 -30 4 -63 23 -59 12 2 17 14 17 38 0 40 -29 55 -40
21z m35 -21 c0 -16 -5 -30 -10 -30 -14 0 -24 26 -16 45 10 26 26 16 26 -15z"/>
<path d="M748 1933 c6 -2 12 -17 12 -33 0 -16 -6 -31 -12 -33 -7 -3 -4 -6 7
-6 18 -1 20 4 17 39 -3 29 -8 40 -21 39 -10 0 -11 -2 -3 -6z"/>
<path d="M794 1926 c-11 -28 0 -61 21 -61 16 0 20 7 20 35 0 25 -5 36 -18 38
-9 2 -20 -3 -23 -12z m36 -26 c0 -20 -5 -30 -15 -30 -10 0 -15 10 -15 30 0 20
5 30 15 30 10 0 15 -10 15 -30z"/>
<path d="M855 1921 c-9 -30 4 -63 23 -59 12 2 17 14 17 38 0 40 -29 55 -40 21z
m35 -21 c0 -31 -16 -41 -26 -15 -8 19 2 45 16 45 5 0 10 -13 10 -30z"/>
<path d="M927 1934 c-4 -4 -7 -12 -7 -18 0 -6 5 -4 10 4 9 13 11 13 21 0 9
-12 10 -12 7 -1 -5 17 -21 25 -31 15z"/>
<path d="M984 1926 c-10 -25 0 -61 18 -64 19 -4 32 29 23 58 -7 23 -33 27 -41
6z m31 -26 c0 -13 -6 -25 -12 -27 -9 -3 -13 6 -13 27 0 21 4 30 13 28 6 -3 12
-15 12 -28z"/>
<path d="M1044 1926 c-11 -28 0 -61 21 -61 16 0 20 7 20 35 0 25 -5 36 -18 38
-9 2 -20 -3 -23 -12z m36 -26 c0 -20 -5 -30 -15 -30 -10 0 -15 10 -15 30 0 20
5 30 15 30 10 0 15 -10 15 -30z"/>
<path d="M923 1880 c2 -8 10 -15 17 -15 7 0 15 7 17 15 4 13 3 13 -6 0 -10
-13 -12 -13 -22 0 -9 13 -10 13 -6 0z"/>
<path d="M800 1290 c0 -11 7 -20 15 -20 21 0 19 -28 -2 -33 -17 -4 -17 -5 0
-6 25 -1 34 29 14 44 -22 16 -21 22 1 28 13 4 11 5 -5 6 -17 1 -23 -5 -23 -19z"/>
<path d="M854 1296 c-11 -28 0 -61 21 -61 16 0 20 7 20 35 0 25 -5 36 -18 38
-9 2 -20 -3 -23 -12z m36 -26 c0 -20 -5 -30 -15 -30 -10 0 -15 10 -15 30 0 20
5 30 15 30 10 0 15 -10 15 -30z"/>
<path d="M915 1291 c-9 -30 4 -63 23 -59 24 5 24 71 0 76 -9 2 -19 -5 -23 -17z
m35 -21 c0 -16 -5 -30 -10 -30 -14 0 -24 26 -16 45 10 26 26 16 26 -15z"/>
<path d="M987 1304 c-4 -4 -7 -12 -7 -18 0 -6 5 -4 10 4 9 13 11 13 21 0 9
-12 10 -12 7 -1 -5 17 -21 25 -31 15z"/>
<path d="M1044 1296 c-10 -25 0 -61 18 -64 19 -4 32 29 23 58 -7 23 -33 27
-41 6z m31 -26 c0 -13 -6 -25 -12 -27 -9 -3 -13 6 -13 27 0 21 4 30 13 28 6
-3 12 -15 12 -28z"/>
<path d="M983 1250 c2 -8 10 -15 17 -15 7 0 15 7 17 15 4 13 3 13 -6 0 -10
-13 -12 -13 -22 0 -9 13 -10 13 -6 0z"/>
<path d="M1057 663 c-11 -10 -8 -61 4 -69 6 -3 16 -1 22 5 9 9 8 11 -5 6 -15
-6 -18 -1 -18 25 0 25 3 31 16 26 8 -3 12 -2 9 4 -7 12 -19 13 -28 3z"/>
<path d="M2957 553 c-11 -10 -8 -61 4 -69 6 -3 16 -1 22 5 9 9 8 11 -5 6 -15
-6 -18 -1 -18 25 0 25 3 31 16 26 8 -3 12 -2 9 4 -7 12 -19 13 -28 3z"/>
<path d="M6618 553 c6 -2 12 -17 12 -33 0 -16 -6 -31 -12 -33 -7 -3 -4 -6 7
-6 18 -1 20 4 17 39 -3 29 -8 40 -21 39 -10 0 -11 -2 -3 -6z"/>
</g>
</svg>
